<?xml version="1.0" ?><svg id="Layer_1" style="enable-background:new 0 0 256 256;" version="1.1" viewBox="0 0 256 256" xml:space="preserve" xmlns="http://www.w3.org/2000/svg" xmlns:xlink="http://www.w3.org/1999/xlink"><g><path d="M224.6,98c-5-10.6-11.6-20.2-19.7-28.6c-4.2-4.4-8.8-8.4-13.7-12l8.8-11.7c1.7-2.2,1.2-5.4-1-7c-2.2-1.7-5.4-1.2-7,1   l-9.2,12.2c-5.9-3.6-12.2-6.6-18.7-8.9c-5.3-1.9-10.9-3.4-16.5-4.5c-4-0.7-8-1.2-12.1-1.5V16h13.7c2.8,0,5-2.3,5-5s-2.3-5-5-5   h-37.5c-2.8,0-5,2.3-5,5s2.3,5,5,5h13.7v20.7C110.9,37,96.3,40.4,83,46.6c-10.6,4.9-20.3,11.5-28.7,19.6   c-11.8,11.3-21,25.4-26.6,40.7c-2,5.4-3.5,11.1-4.6,16.8c-1.1,5.7-1.7,11.5-1.8,17.3c-0.4,16.4,3.1,33,10.2,47.9   c4.9,10.5,11.5,20,19.6,28.4c11.3,11.8,25.5,21,40.9,26.5c5.3,1.9,10.8,3.4,16.4,4.4c5.6,1,11.3,1.6,16.9,1.8c0.9,0,1.8,0,2.7,0   c15.5,0,30.9-3.4,45-10c10.5-4.9,20.1-11.4,28.5-19.4c12-11.3,21.2-25.5,26.8-41c2-5.4,3.5-11.1,4.6-16.8   c1.1-5.8,1.7-11.6,1.8-17.4C235,129.3,231.5,112.8,224.6,98z M223,161.1c-1,5.2-2.4,10.3-4.1,15.2c-5.1,14-13.5,26.8-24.3,37.1   c-7.6,7.2-16.3,13.1-25.8,17.6c-13.4,6.3-28.4,9.4-43.2,9c-5.1-0.1-10.3-0.7-15.4-1.6c-5.1-1-10.1-2.3-14.9-4   c-13.9-5-26.7-13.3-37-24c-7.3-7.6-13.2-16.2-17.7-25.7c-6.4-13.5-9.6-28.5-9.2-43.4c0.1-5.2,0.7-10.5,1.6-15.7   c1-5.2,2.4-10.4,4.1-15.3c5-13.9,13.4-26.6,24.1-36.8c7.7-7.3,16.4-13.3,26-17.8c12.7-5.9,26.7-9,40.6-9c0.8,0,1.6,0,2.5,0   c5.1,0.1,10.3,0.7,15.4,1.6c5.1,1,10.1,2.3,14.9,4c13.9,5,26.7,13.3,36.9,23.9c7.3,7.6,13.3,16.4,17.8,26   c6.3,13.4,9.5,28.3,9.1,43.1C224.5,150.6,223.9,155.9,223,161.1z"/><path d="M167.4,101L140,125.8c-1.5-1-3.1-1.9-4.8-2.5c-1.1-0.4-2.2-0.7-3.3-0.9c-1.1-0.2-2.3-0.3-3.4-0.4c-3.2,0-6.5,0.6-9.5,2   c-2.1,1-4,2.3-5.7,3.9c-2.4,2.3-4.2,5.1-5.3,8.1c-0.4,1.1-0.7,2.2-0.9,3.3c-0.2,1.1-0.3,2.3-0.4,3.5c-0.1,3.3,0.6,6.6,2,9.6   c1,2.1,2.3,4,3.9,5.7c2.3,2.4,5.1,4.2,8.2,5.3c1.1,0.4,2.2,0.7,3.3,0.9c1.1,0.2,2.3,0.3,3.4,0.4c0.2,0,0.4,0,0.5,0   c3.1,0,6.2-0.7,9-2c2.1-1,4-2.3,5.7-3.9c2.4-2.3,4.2-5.1,5.4-8.2c0.4-1.1,0.7-2.2,0.9-3.3c0.2-1.1,0.3-2.3,0.4-3.5   c0.1-3.3-0.6-6.5-2-9.5c-0.2-0.4-0.4-0.7-0.6-1l27.5-24.8c2.1-1.9,2.2-5,0.4-7.1C172.7,99.3,169.5,99.2,167.4,101z M139,145.4   C139,145.4,139,145.4,139,145.4c-0.1,0.6-0.3,1.2-0.5,1.8c-0.6,1.6-1.6,3.1-2.8,4.3c-0.9,0.8-1.9,1.5-3,2c-1.6,0.7-3.3,1.1-5,1   c-0.6,0-1.2-0.1-1.8-0.2c-0.6-0.1-1.2-0.3-1.7-0.5c-1.6-0.6-3.1-1.5-4.3-2.8c-0.8-0.9-1.5-1.9-2.1-3c-0.7-1.6-1.1-3.3-1.1-5   c0-0.6,0.1-1.2,0.2-1.8c0.1-0.6,0.3-1.2,0.5-1.8c0.6-1.6,1.5-3.1,2.8-4.3c0.9-0.8,1.9-1.5,3-2.1c1.5-0.7,3.1-1,4.7-1   c0.1,0,0.2,0,0.3,0c0.6,0,1.2,0.1,1.8,0.2c0.6,0.1,1.2,0.3,1.7,0.5c1.6,0.6,3.1,1.5,4.3,2.8c0.1,0.1,0.1,0.1,0.2,0.2   c0,0,0,0.1,0.1,0.1c0,0,0,0,0.1,0c0.7,0.8,1.3,1.7,1.8,2.7c0.7,1.6,1.1,3.3,1.1,5C139.2,144.2,139.1,144.8,139,145.4z"/></g></svg>